<?xml version="1.0" encoding="UTF-8"?>
<svg id="Capa_1" data-name="Capa 1" xmlns="http://www.w3.org/2000/svg" viewBox="0 0 200 60">
  <defs>
    <style>
      .cls-1 {
        fill: #17524c;
      }
    </style>
  </defs>
  <g>
    <g>
      <path class="cls-1" d="M82.81,14.17l-8.81,21.35h-4.96l-8.78-21.35h5.1l6.18,15.72,6.15-15.72h5.1Z"/>
      <path class="cls-1" d="M95.61,23.01h8.98v3.88h-8.98v4.64h10.18v4h-14.79V14.17h14.79v4h-10.18v4.84Z"/>
      <path class="cls-1" d="M126.84,35.52l-4.08-6.79h-3.18v6.79h-4.61V14.17h8.14c5.31,0,8.63,3.03,8.63,7.35,0,2.92-1.46,5.19-4.11,6.36l4.55,7.64h-5.34ZM123.05,18.08h-3.47v6.77h3.47c2.71,0,4.05-1.34,4.05-3.32s-1.34-3.44-4.05-3.44Z"/>
      <path class="cls-1" d="M150.2,18.17v17.35h-4.64v-17.35h-6.04v-4h16.68v4h-6.01Z"/>
      <path class="cls-1" d="M164.84,35.52V14.17h4.61v21.35h-4.61Z"/>
      <path class="cls-1" d="M177.75,14.17h5.8l4.81,7.12,4.75-7.12h5.8l-7.58,10.7,7.55,10.64h-5.8l-4.72-7.06-4.75,7.06h-5.8l7.55-10.64-7.61-10.7Z"/>
    </g>
    <g>
      <path class="cls-1" d="M.44,10.42c0-.16,4.21.57,4.65.67,1.59.38,3.15.91,4.65,1.57,2.99,1.32,5.76,3.18,8.09,5.47,1.6,1.57,3.05,3.37,5.06,4.36,3.49,1.71,8.25.91,11.36-1.26,1.4-.98,2.62-2.19,3.83-3.4,1.66-1.66,3.32-3.32,4.99-4.98,3.14-3.13,8-6.27,11.32-6.27,0,2.45,0,5.24,0,7.69-4.27.27-8.65,3.76-11.66,6.57-4.51,4.22-8.43,10.26-15.31,10.19-3.53-.04-6.67-1.68-9.2-4.05-1.58-1.48-3.01-3.12-4.68-4.5-1.85-1.52-3.98-2.68-6.24-3.45-.55-.19-6.85-1.52-6.85-1.16,0-2.49,0-4.97,0-7.46Z"/>
      <rect class="cls-1" x=".44" y="32.54" width="53.95" height="2.98"/>
    </g>
  </g>
  <g>
    <path class="cls-1" d="M3.15,52.63c-1.79,0-3.12-1.3-3.12-3.07s1.33-3.06,3.12-3.06c1.42,0,2.32.74,2.7,1.6l-.96.4c-.28-.51-.88-1.04-1.75-1.04-1.17,0-2.08.91-2.08,2.1s.92,2.12,2.08,2.12c.88,0,1.51-.52,1.76-1.04l.95.4c-.37.85-1.29,1.6-2.7,1.6Z"/>
    <path class="cls-1" d="M8.39,52.53v-5.93h1.02v5.93h-1.02Z"/>
    <path class="cls-1" d="M13.46,49.15h2.59v.88h-2.59v1.6h2.92v.9h-3.94v-5.93h3.94v.9h-2.92v1.65Z"/>
    <path class="cls-1" d="M24,46.6v5.93h-.99l-2.96-4.14v4.14h-1.02v-5.93h.99l2.95,4.14v-4.14h1.03Z"/>
    <path class="cls-1" d="M29.77,52.63c-1.79,0-3.12-1.3-3.12-3.07s1.33-3.06,3.12-3.06c1.42,0,2.32.74,2.7,1.6l-.96.4c-.28-.51-.88-1.04-1.75-1.04-1.17,0-2.08.91-2.08,2.1s.92,2.12,2.08,2.12c.88,0,1.51-.52,1.76-1.04l.95.4c-.37.85-1.29,1.6-2.7,1.6Z"/>
    <path class="cls-1" d="M35.02,52.53v-5.93h1.02v5.93h-1.02Z"/>
    <path class="cls-1" d="M42.83,51.21h-2.75l-.53,1.32h-1.11l2.47-5.93h1.1l2.47,5.93h-1.12l-.53-1.32ZM42.48,50.34l-1.03-2.55-1.03,2.55h2.06Z"/>
    <path class="cls-1" d="M47.64,52.1c0,.41-.48,1.34-.66,1.68l-.49-.19c.13-.31.32-.85.36-1.04-.25-.02-.48-.24-.49-.53-.02-.34.28-.62.61-.62.41,0,.67.29.67.7Z"/>
    <path class="cls-1" d="M60.35,52.53h-1.03v-4.19l-1.84,3.19h-.39l-1.85-3.21v4.2h-1.02v-5.93h1.12l1.95,3.36,1.94-3.36h1.12v5.93Z"/>
    <path class="cls-1" d="M63.02,49.57c0-1.76,1.23-3.06,3.1-3.06s3.11,1.3,3.11,3.06-1.24,3.07-3.11,3.07-3.1-1.3-3.1-3.07ZM64.06,49.57c0,1.21.88,2.12,2.06,2.12s2.07-.91,2.07-2.12-.87-2.11-2.07-2.11-2.06.91-2.06,2.11Z"/>
    <path class="cls-1" d="M77.25,46.6l-2.46,5.93h-1.11l-2.45-5.93h1.13l1.88,4.69,1.88-4.69h1.13Z"/>
    <path class="cls-1" d="M79.65,52.53v-5.93h1.02v5.93h-1.02Z"/>
    <path class="cls-1" d="M89.83,52.53h-1.03v-4.19l-1.84,3.19h-.39l-1.85-3.21v4.2h-1.02v-5.93h1.12l1.95,3.36,1.94-3.36h1.12v5.93Z"/>
    <path class="cls-1" d="M92.85,52.53v-5.93h1.02v5.93h-1.02Z"/>
    <path class="cls-1" d="M97.92,49.15h2.59v.88h-2.59v1.6h2.92v.9h-3.94v-5.93h3.94v.9h-2.92v1.65Z"/>
    <path class="cls-1" d="M108.46,46.6v5.93h-.99l-2.96-4.14v4.14h-1.02v-5.93h.99l2.95,4.14v-4.14h1.03Z"/>
    <path class="cls-1" d="M113.69,47.5v5.03h-1.03v-5.03h-1.72v-.9h4.46v.9h-1.72Z"/>
    <path class="cls-1" d="M117.55,49.57c0-1.76,1.23-3.06,3.1-3.06s3.11,1.3,3.11,3.06-1.24,3.07-3.11,3.07-3.1-1.3-3.1-3.07ZM118.59,49.57c0,1.21.88,2.12,2.06,2.12s2.07-.91,2.07-2.12-.87-2.11-2.07-2.11-2.06.91-2.06,2.11Z"/>
    <path class="cls-1" d="M133.16,50.25v2.28h-1.02v-2.28l-2.27-3.64h1.21l1.57,2.62,1.58-2.62h1.19l-2.26,3.64Z"/>
    <path class="cls-1" d="M146.43,50.85c0,1.12-.75,1.68-2.02,1.68h-2.53v-5.93h2.5c1.11,0,1.85.5,1.85,1.6,0,.62-.45,1.1-.87,1.22.45.09,1.07.53,1.07,1.43ZM142.91,47.48v1.64h1.26c.64,0,1.03-.31,1.03-.82,0-.65-.46-.82-.91-.82h-1.38ZM145.39,50.8c0-.55-.37-.89-1.04-.89h-1.45v1.76h1.47c.58,0,1.01-.23,1.01-.87Z"/>
    <path class="cls-1" d="M149.16,52.53v-5.93h1.02v5.93h-1.02Z"/>
    <path class="cls-1" d="M154.22,49.15h2.59v.88h-2.59v1.6h2.92v.9h-3.94v-5.93h3.94v.9h-2.92v1.65Z"/>
    <path class="cls-1" d="M164.76,46.6v5.93h-.99l-2.96-4.14v4.14h-1.02v-5.93h.99l2.95,4.14v-4.14h1.03Z"/>
    <path class="cls-1" d="M168.81,49.15h2.59v.88h-2.59v1.6h2.92v.9h-3.94v-5.93h3.94v.9h-2.92v1.65Z"/>
    <path class="cls-1" d="M176.47,51.69c.74,0,1.22-.22,1.22-.79,0-1.27-3.7-.39-3.7-2.66,0-1.2,1.11-1.74,2.24-1.74.89,0,1.67.3,2.19.74l-.53.74c-.46-.33-1.05-.53-1.73-.53-.58,0-1.16.2-1.16.77,0,1.21,3.7.32,3.7,2.68,0,1.15-.92,1.74-2.24,1.74-1.01,0-1.95-.35-2.55-.85l.56-.74c.52.37,1.18.64,1.98.64Z"/>
    <path class="cls-1" d="M183.53,47.5v5.03h-1.03v-5.03h-1.72v-.9h4.46v.9h-1.72Z"/>
    <path class="cls-1" d="M190.91,51.21h-2.75l-.53,1.32h-1.11l2.47-5.93h1.1l2.47,5.93h-1.12l-.53-1.32ZM190.56,50.34l-1.03-2.55-1.03,2.55h2.06Z"/>
    <path class="cls-1" d="M198.31,52.53l-1.21-1.98h-1.14v1.98h-1.02v-5.93h2.13c1.48,0,2.34.82,2.34,1.98,0,.83-.43,1.47-1.22,1.77l1.3,2.17h-1.18ZM197.07,47.48h-1.11v2.18h1.11c.88,0,1.31-.44,1.31-1.08s-.43-1.1-1.31-1.1Z"/>
  </g>
</svg>